<svg xmlns="http://www.w3.org/2000/svg" xmlns:xlink="http://www.w3.org/1999/xlink" id="Layer_1" x="0" y="0" enable-background="new 0 0 180 180" version="1.1" viewBox="0 0 180 180" xml:space="preserve"><switch><g><g><g><linearGradient id="SVGID_1_" x1="67.827" x2="111.993" y1="67.37" y2="111.537" gradientUnits="userSpaceOnUse"><stop offset="0" style="stop-color:#e6e6e6"/><stop offset=".5" style="stop-color:#f2f2f2"/><stop offset="1" style="stop-color:#bfbfbf"/></linearGradient><path fill="url(#SVGID_1_)" d="M109.8,76.5h-1.9v-1.9c0-1.7-1.4-3.1-3.1-3.1h-1.9v-1.9c0-1.7-1.4-3.1-3.1-3.1H70 c-1.7,0-3.1,1.4-3.1,3.1v29.7c0,1.7,1.4,3.1,3.1,3.1h1.9v1.9c0,1.7,1.4,3.1,3.1,3.1h1.9v1.9c0,1.7,1.4,3.1,3.1,3.1h29.7 c1.7,0,3.1-1.4,3.1-3.1V79.6C112.9,77.9,111.5,76.5,109.8,76.5z"/><path d="M124.2,65.5c-2.8-4-10.8-3.7-21.8,0.9c-0.7-0.5-1.5-0.9-2.5-0.9H70.1c-2.3,0-4.1,1.9-4.1,4.1v21.6 c-9.4,9.7-13.2,18-10.2,22.3c1.3,1.8,3.7,2.8,7.1,2.8c2.5,0,5.6-0.5,9.1-1.6c1.8-0.6,3.7-1.3,5.7-2.1c0.7,0.5,1.5,0.9,2.5,0.9 h29.7c2.3,0,4.1-1.9,4.1-4.1V87.8c2.2-2.3,4.2-4.5,5.8-6.7C124.9,74.2,126.4,68.7,124.2,65.5z M97.2,100h-7.7V89h11v8.6 c-1,0.8-2.1,1.6-3.2,2.3C97.3,100,97.2,100,97.2,100z M78.5,110.7c-0.3-0.4-0.5-0.8-0.5-1.3V101h10.5v4.6 C85.1,107.6,81.7,109.3,78.5,110.7z M73,95V84h3v11H73z M76,96v10.5h-0.9c-1.2,0-2.1-1-2.1-2.1V96H76z M73,83v-8.4 c0-1.2,1-2.1,2.1-2.1h8.4v3h-3.4c-2.3,0-4.1,1.9-4.1,4.1V83H73z M95.5,75.5h-11v-3h11V75.5z M100.5,77.5V88h-11V77.5H100.5z M88.5,77.5V88H78v-8.4c0-1.2,1-2.1,2.1-2.1H88.5z M88.5,89v11H78V89H88.5z M89.5,101h6.2c-2.1,1.4-4.2,2.7-6.2,4V101z M112,87.7c-0.1,0.1-0.2,0.2-0.3,0.3h-10.2V77.5h8.4c1.2,0,2.1,1,2.1,2.1V87.7z M110.7,89c-2.8,2.6-5.8,5.3-9.2,7.8V89H110.7z M107,75.5H96.5v-3h8.4c1.2,0,2.1,1,2.1,2.1V75.5z M91.5,67.5h8.4c1.2,0,2.1,1,2.1,2.1v0.9H91.5V67.5z M79.5,67.5h11v3h-11V67.5 z M68,69.6c0-1.2,1-2.1,2.1-2.1h8.4v3h-3.4c-2.3,0-4.1,1.9-4.1,4.1V78h-3V69.6z M68,79h3v11h-3V79z M68,91h3v10.5h-0.9 c-1.2,0-2.1-1-2.1-2.1V91z M71.5,113.3c-7.4,2.2-12.6,2-14.5-0.6c-2.4-3.4,1.1-10.9,8.9-19.3v6c0,2.3,1.9,4.1,4.1,4.1H71v0.9 c0,2.3,1.9,4.1,4.1,4.1H76v0.9c0,0.8,0.2,1.5,0.6,2.1C74.9,112.2,73.2,112.8,71.5,113.3z M80.3,111.5c2.7-1.2,5.4-2.6,8.2-4.2 v4.2H80.3z M100.5,111.5h-11v-4.8c2.9-1.7,5.8-3.5,8.7-5.6c0.1,0,0.1-0.1,0.2-0.1h2.1V111.5z M99.8,100c0.2-0.2,0.5-0.4,0.7-0.5 v0.5H99.8z M112,109.4c0,1.2-1,2.1-2.1,2.1h-8.4V101H112V109.4z M101.5,100v-1.3c3.8-2.9,7.4-5.9,10.5-8.9V100H101.5z M114,85.6 v-6c0-2.3-1.9-4.1-4.1-4.1H109v-0.9c0-2.3-1.9-4.1-4.1-4.1H104v-0.9c0-0.8-0.2-1.5-0.6-2.1c9.8-3.9,17.3-4.4,19.5-1.2 c1.8,2.6,0.3,7.7-4.3,13.8C117.3,82,115.7,83.8,114,85.6z"/></g></g></g></switch></svg>